# xmcd CD database file
#
# Track frame offsets:
#	150
#	37205
#	76684
#	96842
#	112743
#	125905
#	141742
#	154194
#	179278
#	208280
#
# Disc length: 3310 seconds
#
# Revision: 0
# Processed by: cddbd v1.5.2PL0 Copyright (c) Steve Scherf et al.
# Submitted via: CDex 1.51
#
DISCID=910cec0a
DTITLE=Combo Gebhardt, Chor Müller, Combo Mudrich - Jazzworkshop Sulzbach 2007, CD 2
DYEAR=2007
DGENRE=Jazz
TTITLE0=All Of You
TTITLE1=Tudo Bem
TTITLE2=Celebration
TTITLE3=On The Sunny Side Of the Street
TTITLE4=Don't You Know, Why?
TTITLE5=Fly Me To The Moon
TTITLE6=Hit the Road, Jack
TTITLE7=Lost Highway Samba
TTITLE8=Skylark
TTITLE9=Moondance
EXTD=YEAR: 2007
EXTT0=
EXTT1=
EXTT2=
EXTT3=
EXTT4=
EXTT5=
EXTT6=
EXTT7=
EXTT8=
EXTT9=
PLAYORDER=
